<?xml version="1.0" encoding="utf-8" standalone="no"?>
<!DOCTYPE svg PUBLIC "-//W3C//DTD SVG 1.1//EN"
  "http://www.w3.org/Graphics/SVG/1.1/DTD/svg11.dtd">
<!-- Created with matplotlib (https://matplotlib.org/) -->
<svg height="345.6pt" version="1.1" viewBox="0 0 460.8 345.6" width="460.8pt" xmlns="http://www.w3.org/2000/svg" xmlns:xlink="http://www.w3.org/1999/xlink">
 <metadata>
  <rdf:RDF xmlns:cc="http://creativecommons.org/ns#" xmlns:dc="http://purl.org/dc/elements/1.1/" xmlns:rdf="http://www.w3.org/1999/02/22-rdf-syntax-ns#">
   <cc:Work>
    <dc:type rdf:resource="http://purl.org/dc/dcmitype/StillImage"/>
    <dc:date>2020-12-08T16:22:26.794809</dc:date>
    <dc:format>image/svg+xml</dc:format>
    <dc:creator>
     <cc:Agent>
      <dc:title>Matplotlib v3.3.2, https://matplotlib.org/</dc:title>
     </cc:Agent>
    </dc:creator>
   </cc:Work>
  </rdf:RDF>
 </metadata>
 <defs>
  <style type="text/css">*{stroke-linecap:butt;stroke-linejoin:round;}</style>
 </defs>
 <g id="figure_1">
  <g id="patch_1">
   <path d="M 0 345.6 
L 460.8 345.6 
L 460.8 0 
L 0 0 
z
" style="fill:#ffffff;"/>
  </g>
  <g id="axes_1">
   <g id="patch_2">
    <path d="M 57.6 307.584 
L 414.72 307.584 
L 414.72 41.472 
L 57.6 41.472 
z
" style="fill:#ffffff;"/>
   </g>
   <g id="matplotlib.axis_1">
    <g id="xtick_1">
     <g id="line2d_1">
      <defs>
       <path d="M 0 0 
L 0 3.5 
" id="meb2d70eabe" style="stroke:#000000;stroke-width:0.8;"/>
      </defs>
      <g>
       <use style="stroke:#000000;stroke-width:0.8;" x="57.6" xlink:href="#meb2d70eabe" y="307.584"/>
      </g>
     </g>
     <g id="text_1">
      <!-- 0.0 -->
      <g transform="translate(49.648438 322.182437)scale(0.1 -0.1)">
       <defs>
        <path d="M 31.78125 66.40625 
Q 24.171875 66.40625 20.328125 58.90625 
Q 16.5 51.421875 16.5 36.375 
Q 16.5 21.390625 20.328125 13.890625 
Q 24.171875 6.390625 31.78125 6.390625 
Q 39.453125 6.390625 43.28125 13.890625 
Q 47.125 21.390625 47.125 36.375 
Q 47.125 51.421875 43.28125 58.90625 
Q 39.453125 66.40625 31.78125 66.40625 
z
M 31.78125 74.21875 
Q 44.046875 74.21875 50.515625 64.515625 
Q 56.984375 54.828125 56.984375 36.375 
Q 56.984375 17.96875 50.515625 8.265625 
Q 44.046875 -1.421875 31.78125 -1.421875 
Q 19.53125 -1.421875 13.0625 8.265625 
Q 6.59375 17.96875 6.59375 36.375 
Q 6.59375 54.828125 13.0625 64.515625 
Q 19.53125 74.21875 31.78125 74.21875 
z
" id="DejaVuSans-48"/>
        <path d="M 10.6875 12.40625 
L 21 12.40625 
L 21 0 
L 10.6875 0 
z
" id="DejaVuSans-46"/>
       </defs>
       <use xlink:href="#DejaVuSans-48"/>
       <use x="63.623047" xlink:href="#DejaVuSans-46"/>
       <use x="95.410156" xlink:href="#DejaVuSans-48"/>
      </g>
     </g>
    </g>
    <g id="xtick_2">
     <g id="line2d_2">
      <g>
       <use style="stroke:#000000;stroke-width:0.8;" x="129.024" xlink:href="#meb2d70eabe" y="307.584"/>
      </g>
     </g>
     <g id="text_2">
      <!-- 0.2 -->
      <g transform="translate(121.072438 322.182437)scale(0.1 -0.1)">
       <defs>
        <path d="M 19.1875 8.296875 
L 53.609375 8.296875 
L 53.609375 0 
L 7.328125 0 
L 7.328125 8.296875 
Q 12.9375 14.109375 22.625 23.890625 
Q 32.328125 33.6875 34.8125 36.53125 
Q 39.546875 41.84375 41.421875 45.53125 
Q 43.3125 49.21875 43.3125 52.78125 
Q 43.3125 58.59375 39.234375 62.25 
Q 35.15625 65.921875 28.609375 65.921875 
Q 23.96875 65.921875 18.8125 64.3125 
Q 13.671875 62.703125 7.8125 59.421875 
L 7.8125 69.390625 
Q 13.765625 71.78125 18.9375 73 
Q 24.125 74.21875 28.421875 74.21875 
Q 39.75 74.21875 46.484375 68.546875 
Q 53.21875 62.890625 53.21875 53.421875 
Q 53.21875 48.921875 51.53125 44.890625 
Q 49.859375 40.875 45.40625 35.40625 
Q 44.1875 33.984375 37.640625 27.21875 
Q 31.109375 20.453125 19.1875 8.296875 
z
" id="DejaVuSans-50"/>
       </defs>
       <use xlink:href="#DejaVuSans-48"/>
       <use x="63.623047" xlink:href="#DejaVuSans-46"/>
       <use x="95.410156" xlink:href="#DejaVuSans-50"/>
      </g>
     </g>
    </g>
    <g id="xtick_3">
     <g id="line2d_3">
      <g>
       <use style="stroke:#000000;stroke-width:0.8;" x="200.448" xlink:href="#meb2d70eabe" y="307.584"/>
      </g>
     </g>
     <g id="text_3">
      <!-- 0.4 -->
      <g transform="translate(192.496438 322.182437)scale(0.1 -0.1)">
       <defs>
        <path d="M 37.796875 64.3125 
L 12.890625 25.390625 
L 37.796875 25.390625 
z
M 35.203125 72.90625 
L 47.609375 72.90625 
L 47.609375 25.390625 
L 58.015625 25.390625 
L 58.015625 17.1875 
L 47.609375 17.1875 
L 47.609375 0 
L 37.796875 0 
L 37.796875 17.1875 
L 4.890625 17.1875 
L 4.890625 26.703125 
z
" id="DejaVuSans-52"/>
       </defs>
       <use xlink:href="#DejaVuSans-48"/>
       <use x="63.623047" xlink:href="#DejaVuSans-46"/>
       <use x="95.410156" xlink:href="#DejaVuSans-52"/>
      </g>
     </g>
    </g>
    <g id="xtick_4">
     <g id="line2d_4">
      <g>
       <use style="stroke:#000000;stroke-width:0.8;" x="271.872" xlink:href="#meb2d70eabe" y="307.584"/>
      </g>
     </g>
     <g id="text_4">
      <!-- 0.6 -->
      <g transform="translate(263.920438 322.182437)scale(0.1 -0.1)">
       <defs>
        <path d="M 33.015625 40.375 
Q 26.375 40.375 22.484375 35.828125 
Q 18.609375 31.296875 18.609375 23.390625 
Q 18.609375 15.53125 22.484375 10.953125 
Q 26.375 6.390625 33.015625 6.390625 
Q 39.65625 6.390625 43.53125 10.953125 
Q 47.40625 15.53125 47.40625 23.390625 
Q 47.40625 31.296875 43.53125 35.828125 
Q 39.65625 40.375 33.015625 40.375 
z
M 52.59375 71.296875 
L 52.59375 62.3125 
Q 48.875 64.0625 45.09375 64.984375 
Q 41.3125 65.921875 37.59375 65.921875 
Q 27.828125 65.921875 22.671875 59.328125 
Q 17.53125 52.734375 16.796875 39.40625 
Q 19.671875 43.65625 24.015625 45.921875 
Q 28.375 48.1875 33.59375 48.1875 
Q 44.578125 48.1875 50.953125 41.515625 
Q 57.328125 34.859375 57.328125 23.390625 
Q 57.328125 12.15625 50.6875 5.359375 
Q 44.046875 -1.421875 33.015625 -1.421875 
Q 20.359375 -1.421875 13.671875 8.265625 
Q 6.984375 17.96875 6.984375 36.375 
Q 6.984375 53.65625 15.1875 63.9375 
Q 23.390625 74.21875 37.203125 74.21875 
Q 40.921875 74.21875 44.703125 73.484375 
Q 48.484375 72.75 52.59375 71.296875 
z
" id="DejaVuSans-54"/>
       </defs>
       <use xlink:href="#DejaVuSans-48"/>
       <use x="63.623047" xlink:href="#DejaVuSans-46"/>
       <use x="95.410156" xlink:href="#DejaVuSans-54"/>
      </g>
     </g>
    </g>
    <g id="xtick_5">
     <g id="line2d_5">
      <g>
       <use style="stroke:#000000;stroke-width:0.8;" x="343.296" xlink:href="#meb2d70eabe" y="307.584"/>
      </g>
     </g>
     <g id="text_5">
      <!-- 0.8 -->
      <g transform="translate(335.344438 322.182437)scale(0.1 -0.1)">
       <defs>
        <path d="M 31.78125 34.625 
Q 24.75 34.625 20.71875 30.859375 
Q 16.703125 27.09375 16.703125 20.515625 
Q 16.703125 13.921875 20.71875 10.15625 
Q 24.75 6.390625 31.78125 6.390625 
Q 38.8125 6.390625 42.859375 10.171875 
Q 46.921875 13.96875 46.921875 20.515625 
Q 46.921875 27.09375 42.890625 30.859375 
Q 38.875 34.625 31.78125 34.625 
z
M 21.921875 38.8125 
Q 15.578125 40.375 12.03125 44.71875 
Q 8.5 49.078125 8.5 55.328125 
Q 8.5 64.0625 14.71875 69.140625 
Q 20.953125 74.21875 31.78125 74.21875 
Q 42.671875 74.21875 48.875 69.140625 
Q 55.078125 64.0625 55.078125 55.328125 
Q 55.078125 49.078125 51.53125 44.71875 
Q 48 40.375 41.703125 38.8125 
Q 48.828125 37.15625 52.796875 32.3125 
Q 56.78125 27.484375 56.78125 20.515625 
Q 56.78125 9.90625 50.3125 4.234375 
Q 43.84375 -1.421875 31.78125 -1.421875 
Q 19.734375 -1.421875 13.25 4.234375 
Q 6.78125 9.90625 6.78125 20.515625 
Q 6.78125 27.484375 10.78125 32.3125 
Q 14.796875 37.15625 21.921875 38.8125 
z
M 18.3125 54.390625 
Q 18.3125 48.734375 21.84375 45.5625 
Q 25.390625 42.390625 31.78125 42.390625 
Q 38.140625 42.390625 41.71875 45.5625 
Q 45.3125 48.734375 45.3125 54.390625 
Q 45.3125 60.0625 41.71875 63.234375 
Q 38.140625 66.40625 31.78125 66.40625 
Q 25.390625 66.40625 21.84375 63.234375 
Q 18.3125 60.0625 18.3125 54.390625 
z
" id="DejaVuSans-56"/>
       </defs>
       <use xlink:href="#DejaVuSans-48"/>
       <use x="63.623047" xlink:href="#DejaVuSans-46"/>
       <use x="95.410156" xlink:href="#DejaVuSans-56"/>
      </g>
     </g>
    </g>
    <g id="xtick_6">
     <g id="line2d_6">
      <g>
       <use style="stroke:#000000;stroke-width:0.8;" x="414.72" xlink:href="#meb2d70eabe" y="307.584"/>
      </g>
     </g>
     <g id="text_6">
      <!-- 1.0 -->
      <g transform="translate(406.768438 322.182437)scale(0.1 -0.1)">
       <defs>
        <path d="M 12.40625 8.296875 
L 28.515625 8.296875 
L 28.515625 63.921875 
L 10.984375 60.40625 
L 10.984375 69.390625 
L 28.421875 72.90625 
L 38.28125 72.90625 
L 38.28125 8.296875 
L 54.390625 8.296875 
L 54.390625 0 
L 12.40625 0 
z
" id="DejaVuSans-49"/>
       </defs>
       <use xlink:href="#DejaVuSans-49"/>
       <use x="63.623047" xlink:href="#DejaVuSans-46"/>
       <use x="95.410156" xlink:href="#DejaVuSans-48"/>
      </g>
     </g>
    </g>
    <g id="text_7">
     <!-- x-Axis -->
     <g transform="translate(221.135781 335.860562)scale(0.1 -0.1)">
      <defs>
       <path d="M 54.890625 54.6875 
L 35.109375 28.078125 
L 55.90625 0 
L 45.3125 0 
L 29.390625 21.484375 
L 13.484375 0 
L 2.875 0 
L 24.125 28.609375 
L 4.6875 54.6875 
L 15.28125 54.6875 
L 29.78125 35.203125 
L 44.28125 54.6875 
z
" id="DejaVuSans-120"/>
       <path d="M 4.890625 31.390625 
L 31.203125 31.390625 
L 31.203125 23.390625 
L 4.890625 23.390625 
z
" id="DejaVuSans-45"/>
       <path d="M 34.1875 63.1875 
L 20.796875 26.90625 
L 47.609375 26.90625 
z
M 28.609375 72.90625 
L 39.796875 72.90625 
L 67.578125 0 
L 57.328125 0 
L 50.6875 18.703125 
L 17.828125 18.703125 
L 11.1875 0 
L 0.78125 0 
z
" id="DejaVuSans-65"/>
       <path d="M 9.421875 54.6875 
L 18.40625 54.6875 
L 18.40625 0 
L 9.421875 0 
z
M 9.421875 75.984375 
L 18.40625 75.984375 
L 18.40625 64.59375 
L 9.421875 64.59375 
z
" id="DejaVuSans-105"/>
       <path d="M 44.28125 53.078125 
L 44.28125 44.578125 
Q 40.484375 46.53125 36.375 47.5 
Q 32.28125 48.484375 27.875 48.484375 
Q 21.1875 48.484375 17.84375 46.4375 
Q 14.5 44.390625 14.5 40.28125 
Q 14.5 37.15625 16.890625 35.375 
Q 19.28125 33.59375 26.515625 31.984375 
L 29.59375 31.296875 
Q 39.15625 29.25 43.1875 25.515625 
Q 47.21875 21.78125 47.21875 15.09375 
Q 47.21875 7.46875 41.1875 3.015625 
Q 35.15625 -1.421875 24.609375 -1.421875 
Q 20.21875 -1.421875 15.453125 -0.5625 
Q 10.6875 0.296875 5.421875 2 
L 5.421875 11.28125 
Q 10.40625 8.6875 15.234375 7.390625 
Q 20.0625 6.109375 24.8125 6.109375 
Q 31.15625 6.109375 34.5625 8.28125 
Q 37.984375 10.453125 37.984375 14.40625 
Q 37.984375 18.0625 35.515625 20.015625 
Q 33.0625 21.96875 24.703125 23.78125 
L 21.578125 24.515625 
Q 13.234375 26.265625 9.515625 29.90625 
Q 5.8125 33.546875 5.8125 39.890625 
Q 5.8125 47.609375 11.28125 51.796875 
Q 16.75 56 26.8125 56 
Q 31.78125 56 36.171875 55.265625 
Q 40.578125 54.546875 44.28125 53.078125 
z
" id="DejaVuSans-115"/>
      </defs>
      <use xlink:href="#DejaVuSans-120"/>
      <use x="59.179688" xlink:href="#DejaVuSans-45"/>
      <use x="93.013672" xlink:href="#DejaVuSans-65"/>
      <use x="161.421875" xlink:href="#DejaVuSans-120"/>
      <use x="220.601562" xlink:href="#DejaVuSans-105"/>
      <use x="248.384766" xlink:href="#DejaVuSans-115"/>
     </g>
    </g>
   </g>
   <g id="matplotlib.axis_2">
    <g id="ytick_1">
     <g id="line2d_7">
      <defs>
       <path d="M 0 0 
L -3.5 0 
" id="m9793672055" style="stroke:#000000;stroke-width:0.8;"/>
      </defs>
      <g>
       <use style="stroke:#000000;stroke-width:0.8;" x="57.6" xlink:href="#m9793672055" y="307.584"/>
      </g>
     </g>
     <g id="text_8">
      <!-- −0.2 -->
      <g transform="translate(26.317187 311.383219)scale(0.1 -0.1)">
       <defs>
        <path d="M 10.59375 35.5 
L 73.1875 35.5 
L 73.1875 27.203125 
L 10.59375 27.203125 
z
" id="DejaVuSans-8722"/>
       </defs>
       <use xlink:href="#DejaVuSans-8722"/>
       <use x="83.789062" xlink:href="#DejaVuSans-48"/>
       <use x="147.412109" xlink:href="#DejaVuSans-46"/>
       <use x="179.199219" xlink:href="#DejaVuSans-50"/>
      </g>
     </g>
    </g>
    <g id="ytick_2">
     <g id="line2d_8">
      <g>
       <use style="stroke:#000000;stroke-width:0.8;" x="57.6" xlink:href="#m9793672055" y="269.568"/>
      </g>
     </g>
     <g id="text_9">
      <!-- −0.1 -->
      <g transform="translate(26.317187 273.367219)scale(0.1 -0.1)">
       <use xlink:href="#DejaVuSans-8722"/>
       <use x="83.789062" xlink:href="#DejaVuSans-48"/>
       <use x="147.412109" xlink:href="#DejaVuSans-46"/>
       <use x="179.199219" xlink:href="#DejaVuSans-49"/>
      </g>
     </g>
    </g>
    <g id="ytick_3">
     <g id="line2d_9">
      <g>
       <use style="stroke:#000000;stroke-width:0.8;" x="57.6" xlink:href="#m9793672055" y="231.552"/>
      </g>
     </g>
     <g id="text_10">
      <!-- 0.0 -->
      <g transform="translate(34.696875 235.351219)scale(0.1 -0.1)">
       <use xlink:href="#DejaVuSans-48"/>
       <use x="63.623047" xlink:href="#DejaVuSans-46"/>
       <use x="95.410156" xlink:href="#DejaVuSans-48"/>
      </g>
     </g>
    </g>
    <g id="ytick_4">
     <g id="line2d_10">
      <g>
       <use style="stroke:#000000;stroke-width:0.8;" x="57.6" xlink:href="#m9793672055" y="193.536"/>
      </g>
     </g>
     <g id="text_11">
      <!-- 0.1 -->
      <g transform="translate(34.696875 197.335219)scale(0.1 -0.1)">
       <use xlink:href="#DejaVuSans-48"/>
       <use x="63.623047" xlink:href="#DejaVuSans-46"/>
       <use x="95.410156" xlink:href="#DejaVuSans-49"/>
      </g>
     </g>
    </g>
    <g id="ytick_5">
     <g id="line2d_11">
      <g>
       <use style="stroke:#000000;stroke-width:0.8;" x="57.6" xlink:href="#m9793672055" y="155.52"/>
      </g>
     </g>
     <g id="text_12">
      <!-- 0.2 -->
      <g transform="translate(34.696875 159.319219)scale(0.1 -0.1)">
       <use xlink:href="#DejaVuSans-48"/>
       <use x="63.623047" xlink:href="#DejaVuSans-46"/>
       <use x="95.410156" xlink:href="#DejaVuSans-50"/>
      </g>
     </g>
    </g>
    <g id="ytick_6">
     <g id="line2d_12">
      <g>
       <use style="stroke:#000000;stroke-width:0.8;" x="57.6" xlink:href="#m9793672055" y="117.504"/>
      </g>
     </g>
     <g id="text_13">
      <!-- 0.3 -->
      <g transform="translate(34.696875 121.303219)scale(0.1 -0.1)">
       <defs>
        <path d="M 40.578125 39.3125 
Q 47.65625 37.796875 51.625 33 
Q 55.609375 28.21875 55.609375 21.1875 
Q 55.609375 10.40625 48.1875 4.484375 
Q 40.765625 -1.421875 27.09375 -1.421875 
Q 22.515625 -1.421875 17.65625 -0.515625 
Q 12.796875 0.390625 7.625 2.203125 
L 7.625 11.71875 
Q 11.71875 9.328125 16.59375 8.109375 
Q 21.484375 6.890625 26.8125 6.890625 
Q 36.078125 6.890625 40.9375 10.546875 
Q 45.796875 14.203125 45.796875 21.1875 
Q 45.796875 27.640625 41.28125 31.265625 
Q 36.765625 34.90625 28.71875 34.90625 
L 20.21875 34.90625 
L 20.21875 43.015625 
L 29.109375 43.015625 
Q 36.375 43.015625 40.234375 45.921875 
Q 44.09375 48.828125 44.09375 54.296875 
Q 44.09375 59.90625 40.109375 62.90625 
Q 36.140625 65.921875 28.71875 65.921875 
Q 24.65625 65.921875 20.015625 65.03125 
Q 15.375 64.15625 9.8125 62.3125 
L 9.8125 71.09375 
Q 15.4375 72.65625 20.34375 73.4375 
Q 25.25 74.21875 29.59375 74.21875 
Q 40.828125 74.21875 47.359375 69.109375 
Q 53.90625 64.015625 53.90625 55.328125 
Q 53.90625 49.265625 50.4375 45.09375 
Q 46.96875 40.921875 40.578125 39.3125 
z
" id="DejaVuSans-51"/>
       </defs>
       <use xlink:href="#DejaVuSans-48"/>
       <use x="63.623047" xlink:href="#DejaVuSans-46"/>
       <use x="95.410156" xlink:href="#DejaVuSans-51"/>
      </g>
     </g>
    </g>
    <g id="ytick_7">
     <g id="line2d_13">
      <g>
       <use style="stroke:#000000;stroke-width:0.8;" x="57.6" xlink:href="#m9793672055" y="79.488"/>
      </g>
     </g>
     <g id="text_14">
      <!-- 0.4 -->
      <g transform="translate(34.696875 83.287219)scale(0.1 -0.1)">
       <use xlink:href="#DejaVuSans-48"/>
       <use x="63.623047" xlink:href="#DejaVuSans-46"/>
       <use x="95.410156" xlink:href="#DejaVuSans-52"/>
      </g>
     </g>
    </g>
    <g id="ytick_8">
     <g id="line2d_14">
      <g>
       <use style="stroke:#000000;stroke-width:0.8;" x="57.6" xlink:href="#m9793672055" y="41.472"/>
      </g>
     </g>
     <g id="text_15">
      <!-- 0.5 -->
      <g transform="translate(34.696875 45.271219)scale(0.1 -0.1)">
       <defs>
        <path d="M 10.796875 72.90625 
L 49.515625 72.90625 
L 49.515625 64.59375 
L 19.828125 64.59375 
L 19.828125 46.734375 
Q 21.96875 47.46875 24.109375 47.828125 
Q 26.265625 48.1875 28.421875 48.1875 
Q 40.625 48.1875 47.75 41.5 
Q 54.890625 34.8125 54.890625 23.390625 
Q 54.890625 11.625 47.5625 5.09375 
Q 40.234375 -1.421875 26.90625 -1.421875 
Q 22.3125 -1.421875 17.546875 -0.640625 
Q 12.796875 0.140625 7.71875 1.703125 
L 7.71875 11.625 
Q 12.109375 9.234375 16.796875 8.0625 
Q 21.484375 6.890625 26.703125 6.890625 
Q 35.15625 6.890625 40.078125 11.328125 
Q 45.015625 15.765625 45.015625 23.390625 
Q 45.015625 31 40.078125 35.4375 
Q 35.15625 39.890625 26.703125 39.890625 
Q 22.75 39.890625 18.8125 39.015625 
Q 14.890625 38.140625 10.796875 36.28125 
z
" id="DejaVuSans-53"/>
       </defs>
       <use xlink:href="#DejaVuSans-48"/>
       <use x="63.623047" xlink:href="#DejaVuSans-46"/>
       <use x="95.410156" xlink:href="#DejaVuSans-53"/>
      </g>
     </g>
    </g>
    <g id="text_16">
     <!-- y-Axis -->
     <g transform="translate(20.2375 189.464719)rotate(-90)scale(0.1 -0.1)">
      <defs>
       <path d="M 32.171875 -5.078125 
Q 28.375 -14.84375 24.75 -17.8125 
Q 21.140625 -20.796875 15.09375 -20.796875 
L 7.90625 -20.796875 
L 7.90625 -13.28125 
L 13.1875 -13.28125 
Q 16.890625 -13.28125 18.9375 -11.515625 
Q 21 -9.765625 23.484375 -3.21875 
L 25.09375 0.875 
L 2.984375 54.6875 
L 12.5 54.6875 
L 29.59375 11.921875 
L 46.6875 54.6875 
L 56.203125 54.6875 
z
" id="DejaVuSans-121"/>
      </defs>
      <use xlink:href="#DejaVuSans-121"/>
      <use x="57.429688" xlink:href="#DejaVuSans-45"/>
      <use x="91.263672" xlink:href="#DejaVuSans-65"/>
      <use x="159.671875" xlink:href="#DejaVuSans-120"/>
      <use x="218.851562" xlink:href="#DejaVuSans-105"/>
      <use x="246.634766" xlink:href="#DejaVuSans-115"/>
     </g>
    </g>
   </g>
   <g id="line2d_15">
    <path clip-path="url(#p709ce28d9b)" d="M 57.6 231.552 
L 59.06963 231.552 
L 59.804444 230.197151 
L 60.539259 231.552 
L 62.008889 231.552 
L 62.743704 230.197151 
L 62.008889 228.842303 
L 63.478519 228.842303 
L 64.213333 227.487454 
L 64.948148 228.842303 
L 66.417778 228.842303 
L 65.682963 230.197151 
L 66.417778 231.552 
L 67.887407 231.552 
L 68.622222 230.197151 
L 69.357037 231.552 
L 70.826667 231.552 
L 71.561481 230.197151 
L 70.826667 228.842303 
L 72.296296 228.842303 
L 73.031111 227.487454 
L 72.296296 226.132605 
L 70.826667 226.132605 
L 71.561481 224.777757 
L 70.826667 223.422908 
L 72.296296 223.422908 
L 73.031111 222.06806 
L 73.765926 223.422908 
L 75.235556 223.422908 
L 75.97037 222.06806 
L 75.235556 220.713211 
L 76.705185 220.713211 
L 77.44 219.358362 
L 78.174815 220.713211 
L 79.644444 220.713211 
L 78.90963 222.06806 
L 79.644444 223.422908 
L 81.114074 223.422908 
L 81.848889 222.06806 
L 82.583704 223.422908 
L 84.053333 223.422908 
L 83.318519 224.777757 
L 84.053333 226.132605 
L 82.583704 226.132605 
L 81.848889 227.487454 
L 82.583704 228.842303 
L 84.053333 228.842303 
L 83.318519 230.197151 
L 84.053333 231.552 
L 85.522963 231.552 
L 86.257778 230.197151 
L 86.992593 231.552 
L 88.462222 231.552 
L 89.197037 230.197151 
L 88.462222 228.842303 
L 89.931852 228.842303 
L 90.666667 227.487454 
L 91.401481 228.842303 
L 92.871111 228.842303 
L 92.136296 230.197151 
L 92.871111 231.552 
L 94.340741 231.552 
L 95.075556 230.197151 
L 95.81037 231.552 
L 97.28 231.552 
L 98.014815 230.197151 
L 97.28 228.842303 
L 98.74963 228.842303 
L 99.484444 227.487454 
L 98.74963 226.132605 
L 97.28 226.132605 
L 98.014815 224.777757 
L 97.28 223.422908 
L 98.74963 223.422908 
L 99.484444 222.06806 
L 100.219259 223.422908 
L 101.688889 223.422908 
L 102.423704 222.06806 
L 101.688889 220.713211 
L 103.158519 220.713211 
L 103.893333 219.358362 
L 103.158519 218.003514 
L 101.688889 218.003514 
L 102.423704 216.648665 
L 101.688889 215.293816 
L 100.219259 215.293816 
L 99.484444 216.648665 
L 98.74963 215.293816 
L 97.28 215.293816 
L 98.014815 213.938968 
L 97.28 212.584119 
L 98.74963 212.584119 
L 99.484444 211.229271 
L 98.74963 209.874422 
L 97.28 209.874422 
L 98.014815 208.519573 
L 97.28 207.164725 
L 98.74963 207.164725 
L 99.484444 205.809876 
L 100.219259 207.164725 
L 101.688889 207.164725 
L 102.423704 205.809876 
L 101.688889 204.455027 
L 103.158519 204.455027 
L 103.893333 203.100179 
L 104.628148 204.455027 
L 106.097778 204.455027 
L 105.362963 205.809876 
L 106.097778 207.164725 
L 107.567407 207.164725 
L 108.302222 205.809876 
L 109.037037 207.164725 
L 110.506667 207.164725 
L 111.241481 205.809876 
L 110.506667 204.455027 
L 111.976296 204.455027 
L 112.711111 203.100179 
L 111.976296 201.74533 
L 110.506667 201.74533 
L 111.241481 200.390481 
L 110.506667 199.035633 
L 111.976296 199.035633 
L 112.711111 197.680784 
L 113.445926 199.035633 
L 114.915556 199.035633 
L 115.65037 197.680784 
L 114.915556 196.325936 
L 116.385185 196.325936 
L 117.12 194.971087 
L 117.854815 196.325936 
L 119.324444 196.325936 
L 118.58963 197.680784 
L 119.324444 199.035633 
L 120.794074 199.035633 
L 121.528889 197.680784 
L 122.263704 199.035633 
L 123.733333 199.035633 
L 122.998519 200.390481 
L 123.733333 201.74533 
L 122.263704 201.74533 
L 121.528889 203.100179 
L 122.263704 204.455027 
L 123.733333 204.455027 
L 122.998519 205.809876 
L 123.733333 207.164725 
L 125.202963 207.164725 
L 125.937778 205.809876 
L 126.672593 207.164725 
L 128.142222 207.164725 
L 128.877037 205.809876 
L 128.142222 204.455027 
L 129.611852 204.455027 
L 130.346667 203.100179 
L 131.081481 204.455027 
L 132.551111 204.455027 
L 131.816296 205.809876 
L 132.551111 207.164725 
L 134.020741 207.164725 
L 134.755556 205.809876 
L 135.49037 207.164725 
L 136.96 207.164725 
L 136.225185 208.519573 
L 136.96 209.874422 
L 135.49037 209.874422 
L 134.755556 211.229271 
L 135.49037 212.584119 
L 136.96 212.584119 
L 136.225185 213.938968 
L 136.96 215.293816 
L 135.49037 215.293816 
L 134.755556 216.648665 
L 134.020741 215.293816 
L 132.551111 215.293816 
L 131.816296 216.648665 
L 132.551111 218.003514 
L 131.081481 218.003514 
L 130.346667 219.358362 
L 131.081481 220.713211 
L 132.551111 220.713211 
L 131.816296 222.06806 
L 132.551111 223.422908 
L 134.020741 223.422908 
L 134.755556 222.06806 
L 135.49037 223.422908 
L 136.96 223.422908 
L 136.225185 224.777757 
L 136.96 226.132605 
L 135.49037 226.132605 
L 134.755556 227.487454 
L 135.49037 228.842303 
L 136.96 228.842303 
L 136.225185 230.197151 
L 136.96 231.552 
L 138.42963 231.552 
L 139.164444 230.197151 
L 139.899259 231.552 
L 141.368889 231.552 
L 142.103704 230.197151 
L 141.368889 228.842303 
L 142.838519 228.842303 
L 143.573333 227.487454 
L 144.308148 228.842303 
L 145.777778 228.842303 
L 145.042963 230.197151 
L 145.777778 231.552 
L 147.247407 231.552 
L 147.982222 230.197151 
L 148.717037 231.552 
L 150.186667 231.552 
L 150.921481 230.197151 
L 150.186667 228.842303 
L 151.656296 228.842303 
L 152.391111 227.487454 
L 151.656296 226.132605 
L 150.186667 226.132605 
L 150.921481 224.777757 
L 150.186667 223.422908 
L 151.656296 223.422908 
L 152.391111 222.06806 
L 153.125926 223.422908 
L 154.595556 223.422908 
L 155.33037 222.06806 
L 154.595556 220.713211 
L 156.065185 220.713211 
L 156.8 219.358362 
L 157.534815 220.713211 
L 159.004444 220.713211 
L 158.26963 222.06806 
L 159.004444 223.422908 
L 160.474074 223.422908 
L 161.208889 222.06806 
L 161.943704 223.422908 
L 163.413333 223.422908 
L 162.678519 224.777757 
L 163.413333 226.132605 
L 161.943704 226.132605 
L 161.208889 227.487454 
L 161.943704 228.842303 
L 163.413333 228.842303 
L 162.678519 230.197151 
L 163.413333 231.552 
L 164.882963 231.552 
L 165.617778 230.197151 
L 166.352593 231.552 
L 167.822222 231.552 
L 168.557037 230.197151 
L 167.822222 228.842303 
L 169.291852 228.842303 
L 170.026667 227.487454 
L 170.761481 228.842303 
L 172.231111 228.842303 
L 171.496296 230.197151 
L 172.231111 231.552 
L 173.700741 231.552 
L 174.435556 230.197151 
L 175.17037 231.552 
L 176.64 231.552 
L 177.374815 230.197151 
L 176.64 228.842303 
L 178.10963 228.842303 
L 178.844444 227.487454 
L 178.10963 226.132605 
L 176.64 226.132605 
L 177.374815 224.777757 
L 176.64 223.422908 
L 178.10963 223.422908 
L 178.844444 222.06806 
L 179.579259 223.422908 
L 181.048889 223.422908 
L 181.783704 222.06806 
L 181.048889 220.713211 
L 182.518519 220.713211 
L 183.253333 219.358362 
L 182.518519 218.003514 
L 181.048889 218.003514 
L 181.783704 216.648665 
L 181.048889 215.293816 
L 179.579259 215.293816 
L 178.844444 216.648665 
L 178.10963 215.293816 
L 176.64 215.293816 
L 177.374815 213.938968 
L 176.64 212.584119 
L 178.10963 212.584119 
L 178.844444 211.229271 
L 178.10963 209.874422 
L 176.64 209.874422 
L 177.374815 208.519573 
L 176.64 207.164725 
L 178.10963 207.164725 
L 178.844444 205.809876 
L 179.579259 207.164725 
L 181.048889 207.164725 
L 181.783704 205.809876 
L 181.048889 204.455027 
L 182.518519 204.455027 
L 183.253333 203.100179 
L 183.988148 204.455027 
L 185.457778 204.455027 
L 184.722963 205.809876 
L 185.457778 207.164725 
L 186.927407 207.164725 
L 187.662222 205.809876 
L 188.397037 207.164725 
L 189.866667 207.164725 
L 190.601481 205.809876 
L 189.866667 204.455027 
L 191.336296 204.455027 
L 192.071111 203.100179 
L 191.336296 201.74533 
L 189.866667 201.74533 
L 190.601481 200.390481 
L 189.866667 199.035633 
L 191.336296 199.035633 
L 192.071111 197.680784 
L 192.805926 199.035633 
L 194.275556 199.035633 
L 195.01037 197.680784 
L 194.275556 196.325936 
L 195.745185 196.325936 
L 196.48 194.971087 
L 195.745185 193.616238 
L 194.275556 193.616238 
L 195.01037 192.26139 
L 194.275556 190.906541 
L 192.805926 190.906541 
L 192.071111 192.26139 
L 191.336296 190.906541 
L 189.866667 190.906541 
L 190.601481 189.551692 
L 189.866667 188.196844 
L 191.336296 188.196844 
L 192.071111 186.841995 
L 191.336296 185.487147 
L 189.866667 185.487147 
L 190.601481 184.132298 
L 189.866667 182.777449 
L 188.397037 182.777449 
L 187.662222 184.132298 
L 186.927407 182.777449 
L 185.457778 182.777449 
L 184.722963 184.132298 
L 185.457778 185.487147 
L 183.988148 185.487147 
L 183.253333 186.841995 
L 182.518519 185.487147 
L 181.048889 185.487147 
L 181.783704 184.132298 
L 181.048889 182.777449 
L 179.579259 182.777449 
L 178.844444 184.132298 
L 178.10963 182.777449 
L 176.64 182.777449 
L 177.374815 181.422601 
L 176.64 180.067752 
L 178.10963 180.067752 
L 178.844444 178.712903 
L 178.10963 177.358055 
L 176.64 177.358055 
L 177.374815 176.003206 
L 176.64 174.648357 
L 178.10963 174.648357 
L 178.844444 173.293509 
L 179.579259 174.648357 
L 181.048889 174.648357 
L 181.783704 173.293509 
L 181.048889 171.93866 
L 182.518519 171.93866 
L 183.253333 170.583812 
L 182.518519 169.228963 
L 181.048889 169.228963 
L 181.783704 167.874114 
L 181.048889 166.519266 
L 179.579259 166.519266 
L 178.844444 167.874114 
L 178.10963 166.519266 
L 176.64 166.519266 
L 177.374815 165.164417 
L 176.64 163.809568 
L 178.10963 163.809568 
L 178.844444 162.45472 
L 178.10963 161.099871 
L 176.64 161.099871 
L 177.374815 159.745023 
L 176.64 158.390174 
L 178.10963 158.390174 
L 178.844444 157.035325 
L 179.579259 158.390174 
L 181.048889 158.390174 
L 181.783704 157.035325 
L 181.048889 155.680477 
L 182.518519 155.680477 
L 183.253333 154.325628 
L 183.988148 155.680477 
L 185.457778 155.680477 
L 184.722963 157.035325 
L 185.457778 158.390174 
L 186.927407 158.390174 
L 187.662222 157.035325 
L 188.397037 158.390174 
L 189.866667 158.390174 
L 190.601481 157.035325 
L 189.866667 155.680477 
L 191.336296 155.680477 
L 192.071111 154.325628 
L 191.336296 152.970779 
L 189.866667 152.970779 
L 190.601481 151.615931 
L 189.866667 150.261082 
L 191.336296 150.261082 
L 192.071111 148.906233 
L 192.805926 150.261082 
L 194.275556 150.261082 
L 195.01037 148.906233 
L 194.275556 147.551385 
L 195.745185 147.551385 
L 196.48 146.196536 
L 197.214815 147.551385 
L 198.684444 147.551385 
L 197.94963 148.906233 
L 198.684444 150.261082 
L 200.154074 150.261082 
L 200.888889 148.906233 
L 201.623704 150.261082 
L 203.093333 150.261082 
L 202.358519 151.615931 
L 203.093333 152.970779 
L 201.623704 152.970779 
L 200.888889 154.325628 
L 201.623704 155.680477 
L 203.093333 155.680477 
L 202.358519 157.035325 
L 203.093333 158.390174 
L 204.562963 158.390174 
L 205.297778 157.035325 
L 206.032593 158.390174 
L 207.502222 158.390174 
L 208.237037 157.035325 
L 207.502222 155.680477 
L 208.971852 155.680477 
L 209.706667 154.325628 
L 210.441481 155.680477 
L 211.911111 155.680477 
L 211.176296 157.035325 
L 211.911111 158.390174 
L 213.380741 158.390174 
L 214.115556 157.035325 
L 214.85037 158.390174 
L 216.32 158.390174 
L 217.054815 157.035325 
L 216.32 155.680477 
L 217.78963 155.680477 
L 218.524444 154.325628 
L 217.78963 152.970779 
L 216.32 152.970779 
L 217.054815 151.615931 
L 216.32 150.261082 
L 217.78963 150.261082 
L 218.524444 148.906233 
L 219.259259 150.261082 
L 220.728889 150.261082 
L 221.463704 148.906233 
L 220.728889 147.551385 
L 222.198519 147.551385 
L 222.933333 146.196536 
L 222.198519 144.841688 
L 220.728889 144.841688 
L 221.463704 143.486839 
L 220.728889 142.13199 
L 219.259259 142.13199 
L 218.524444 143.486839 
L 217.78963 142.13199 
L 216.32 142.13199 
L 217.054815 140.777142 
L 216.32 139.422293 
L 217.78963 139.422293 
L 218.524444 138.067444 
L 217.78963 136.712596 
L 216.32 136.712596 
L 217.054815 135.357747 
L 216.32 134.002899 
L 217.78963 134.002899 
L 218.524444 132.64805 
L 219.259259 134.002899 
L 220.728889 134.002899 
L 221.463704 132.64805 
L 220.728889 131.293201 
L 222.198519 131.293201 
L 222.933333 129.938353 
L 223.668148 131.293201 
L 225.137778 131.293201 
L 224.402963 132.64805 
L 225.137778 134.002899 
L 226.607407 134.002899 
L 227.342222 132.64805 
L 228.077037 134.002899 
L 229.546667 134.002899 
L 230.281481 132.64805 
L 229.546667 131.293201 
L 231.016296 131.293201 
L 231.751111 129.938353 
L 231.016296 128.583504 
L 229.546667 128.583504 
L 230.281481 127.228655 
L 229.546667 125.873807 
L 231.016296 125.873807 
L 231.751111 124.518958 
L 232.485926 125.873807 
L 233.955556 125.873807 
L 234.69037 124.518958 
L 233.955556 123.164109 
L 235.425185 123.164109 
L 236.16 121.809261 
L 236.894815 123.164109 
L 238.364444 123.164109 
L 237.62963 124.518958 
L 238.364444 125.873807 
L 239.834074 125.873807 
L 240.568889 124.518958 
L 241.303704 125.873807 
L 242.773333 125.873807 
L 242.038519 127.228655 
L 242.773333 128.583504 
L 241.303704 128.583504 
L 240.568889 129.938353 
L 241.303704 131.293201 
L 242.773333 131.293201 
L 242.038519 132.64805 
L 242.773333 134.002899 
L 244.242963 134.002899 
L 244.977778 132.64805 
L 245.712593 134.002899 
L 247.182222 134.002899 
L 247.917037 132.64805 
L 247.182222 131.293201 
L 248.651852 131.293201 
L 249.386667 129.938353 
L 250.121481 131.293201 
L 251.591111 131.293201 
L 250.856296 132.64805 
L 251.591111 134.002899 
L 253.060741 134.002899 
L 253.795556 132.64805 
L 254.53037 134.002899 
L 256 134.002899 
L 255.265185 135.357747 
L 256 136.712596 
L 254.53037 136.712596 
L 253.795556 138.067444 
L 254.53037 139.422293 
L 256 139.422293 
L 255.265185 140.777142 
L 256 142.13199 
L 254.53037 142.13199 
L 253.795556 143.486839 
L 253.060741 142.13199 
L 251.591111 142.13199 
L 250.856296 143.486839 
L 251.591111 144.841688 
L 250.121481 144.841688 
L 249.386667 146.196536 
L 250.121481 147.551385 
L 251.591111 147.551385 
L 250.856296 148.906233 
L 251.591111 150.261082 
L 253.060741 150.261082 
L 253.795556 148.906233 
L 254.53037 150.261082 
L 256 150.261082 
L 255.265185 151.615931 
L 256 152.970779 
L 254.53037 152.970779 
L 253.795556 154.325628 
L 254.53037 155.680477 
L 256 155.680477 
L 255.265185 157.035325 
L 256 158.390174 
L 257.46963 158.390174 
L 258.204444 157.035325 
L 258.939259 158.390174 
L 260.408889 158.390174 
L 261.143704 157.035325 
L 260.408889 155.680477 
L 261.878519 155.680477 
L 262.613333 154.325628 
L 263.348148 155.680477 
L 264.817778 155.680477 
L 264.082963 157.035325 
L 264.817778 158.390174 
L 266.287407 158.390174 
L 267.022222 157.035325 
L 267.757037 158.390174 
L 269.226667 158.390174 
L 269.961481 157.035325 
L 269.226667 155.680477 
L 270.696296 155.680477 
L 271.431111 154.325628 
L 270.696296 152.970779 
L 269.226667 152.970779 
L 269.961481 151.615931 
L 269.226667 150.261082 
L 270.696296 150.261082 
L 271.431111 148.906233 
L 272.165926 150.261082 
L 273.635556 150.261082 
L 274.37037 148.906233 
L 273.635556 147.551385 
L 275.105185 147.551385 
L 275.84 146.196536 
L 276.574815 147.551385 
L 278.044444 147.551385 
L 277.30963 148.906233 
L 278.044444 150.261082 
L 279.514074 150.261082 
L 280.248889 148.906233 
L 280.983704 150.261082 
L 282.453333 150.261082 
L 281.718519 151.615931 
L 282.453333 152.970779 
L 280.983704 152.970779 
L 280.248889 154.325628 
L 280.983704 155.680477 
L 282.453333 155.680477 
L 281.718519 157.035325 
L 282.453333 158.390174 
L 283.922963 158.390174 
L 284.657778 157.035325 
L 285.392593 158.390174 
L 286.862222 158.390174 
L 287.597037 157.035325 
L 286.862222 155.680477 
L 288.331852 155.680477 
L 289.066667 154.325628 
L 289.801481 155.680477 
L 291.271111 155.680477 
L 290.536296 157.035325 
L 291.271111 158.390174 
L 292.740741 158.390174 
L 293.475556 157.035325 
L 294.21037 158.390174 
L 295.68 158.390174 
L 294.945185 159.745023 
L 295.68 161.099871 
L 294.21037 161.099871 
L 293.475556 162.45472 
L 294.21037 163.809568 
L 295.68 163.809568 
L 294.945185 165.164417 
L 295.68 166.519266 
L 294.21037 166.519266 
L 293.475556 167.874114 
L 292.740741 166.519266 
L 291.271111 166.519266 
L 290.536296 167.874114 
L 291.271111 169.228963 
L 289.801481 169.228963 
L 289.066667 170.583812 
L 289.801481 171.93866 
L 291.271111 171.93866 
L 290.536296 173.293509 
L 291.271111 174.648357 
L 292.740741 174.648357 
L 293.475556 173.293509 
L 294.21037 174.648357 
L 295.68 174.648357 
L 294.945185 176.003206 
L 295.68 177.358055 
L 294.21037 177.358055 
L 293.475556 178.712903 
L 294.21037 180.067752 
L 295.68 180.067752 
L 294.945185 181.422601 
L 295.68 182.777449 
L 294.21037 182.777449 
L 293.475556 184.132298 
L 292.740741 182.777449 
L 291.271111 182.777449 
L 290.536296 184.132298 
L 291.271111 185.487147 
L 289.801481 185.487147 
L 289.066667 186.841995 
L 288.331852 185.487147 
L 286.862222 185.487147 
L 287.597037 184.132298 
L 286.862222 182.777449 
L 285.392593 182.777449 
L 284.657778 184.132298 
L 283.922963 182.777449 
L 282.453333 182.777449 
L 281.718519 184.132298 
L 282.453333 185.487147 
L 280.983704 185.487147 
L 280.248889 186.841995 
L 280.983704 188.196844 
L 282.453333 188.196844 
L 281.718519 189.551692 
L 282.453333 190.906541 
L 280.983704 190.906541 
L 280.248889 192.26139 
L 279.514074 190.906541 
L 278.044444 190.906541 
L 277.30963 192.26139 
L 278.044444 193.616238 
L 276.574815 193.616238 
L 275.84 194.971087 
L 276.574815 196.325936 
L 278.044444 196.325936 
L 277.30963 197.680784 
L 278.044444 199.035633 
L 279.514074 199.035633 
L 280.248889 197.680784 
L 280.983704 199.035633 
L 282.453333 199.035633 
L 281.718519 200.390481 
L 282.453333 201.74533 
L 280.983704 201.74533 
L 280.248889 203.100179 
L 280.983704 204.455027 
L 282.453333 204.455027 
L 281.718519 205.809876 
L 282.453333 207.164725 
L 283.922963 207.164725 
L 284.657778 205.809876 
L 285.392593 207.164725 
L 286.862222 207.164725 
L 287.597037 205.809876 
L 286.862222 204.455027 
L 288.331852 204.455027 
L 289.066667 203.100179 
L 289.801481 204.455027 
L 291.271111 204.455027 
L 290.536296 205.809876 
L 291.271111 207.164725 
L 292.740741 207.164725 
L 293.475556 205.809876 
L 294.21037 207.164725 
L 295.68 207.164725 
L 294.945185 208.519573 
L 295.68 209.874422 
L 294.21037 209.874422 
L 293.475556 211.229271 
L 294.21037 212.584119 
L 295.68 212.584119 
L 294.945185 213.938968 
L 295.68 215.293816 
L 294.21037 215.293816 
L 293.475556 216.648665 
L 292.740741 215.293816 
L 291.271111 215.293816 
L 290.536296 216.648665 
L 291.271111 218.003514 
L 289.801481 218.003514 
L 289.066667 219.358362 
L 289.801481 220.713211 
L 291.271111 220.713211 
L 290.536296 222.06806 
L 291.271111 223.422908 
L 292.740741 223.422908 
L 293.475556 222.06806 
L 294.21037 223.422908 
L 295.68 223.422908 
L 294.945185 224.777757 
L 295.68 226.132605 
L 294.21037 226.132605 
L 293.475556 227.487454 
L 294.21037 228.842303 
L 295.68 228.842303 
L 294.945185 230.197151 
L 295.68 231.552 
L 297.14963 231.552 
L 297.884444 230.197151 
L 298.619259 231.552 
L 300.088889 231.552 
L 300.823704 230.197151 
L 300.088889 228.842303 
L 301.558519 228.842303 
L 302.293333 227.487454 
L 303.028148 228.842303 
L 304.497778 228.842303 
L 303.762963 230.197151 
L 304.497778 231.552 
L 305.967407 231.552 
L 306.702222 230.197151 
L 307.437037 231.552 
L 308.906667 231.552 
L 309.641481 230.197151 
L 308.906667 228.842303 
L 310.376296 228.842303 
L 311.111111 227.487454 
L 310.376296 226.132605 
L 308.906667 226.132605 
L 309.641481 224.777757 
L 308.906667 223.422908 
L 310.376296 223.422908 
L 311.111111 222.06806 
L 311.845926 223.422908 
L 313.315556 223.422908 
L 314.05037 222.06806 
L 313.315556 220.713211 
L 314.785185 220.713211 
L 315.52 219.358362 
L 316.254815 220.713211 
L 317.724444 220.713211 
L 316.98963 222.06806 
L 317.724444 223.422908 
L 319.194074 223.422908 
L 319.928889 222.06806 
L 320.663704 223.422908 
L 322.133333 223.422908 
L 321.398519 224.777757 
L 322.133333 226.132605 
L 320.663704 226.132605 
L 319.928889 227.487454 
L 320.663704 228.842303 
L 322.133333 228.842303 
L 321.398519 230.197151 
L 322.133333 231.552 
L 323.602963 231.552 
L 324.337778 230.197151 
L 325.072593 231.552 
L 326.542222 231.552 
L 327.277037 230.197151 
L 326.542222 228.842303 
L 328.011852 228.842303 
L 328.746667 227.487454 
L 329.481481 228.842303 
L 330.951111 228.842303 
L 330.216296 230.197151 
L 330.951111 231.552 
L 332.420741 231.552 
L 333.155556 230.197151 
L 333.89037 231.552 
L 335.36 231.552 
L 336.094815 230.197151 
L 335.36 228.842303 
L 336.82963 228.842303 
L 337.564444 227.487454 
L 336.82963 226.132605 
L 335.36 226.132605 
L 336.094815 224.777757 
L 335.36 223.422908 
L 336.82963 223.422908 
L 337.564444 222.06806 
L 338.299259 223.422908 
L 339.768889 223.422908 
L 340.503704 222.06806 
L 339.768889 220.713211 
L 341.238519 220.713211 
L 341.973333 219.358362 
L 341.238519 218.003514 
L 339.768889 218.003514 
L 340.503704 216.648665 
L 339.768889 215.293816 
L 338.299259 215.293816 
L 337.564444 216.648665 
L 336.82963 215.293816 
L 335.36 215.293816 
L 336.094815 213.938968 
L 335.36 212.584119 
L 336.82963 212.584119 
L 337.564444 211.229271 
L 336.82963 209.874422 
L 335.36 209.874422 
L 336.094815 208.519573 
L 335.36 207.164725 
L 336.82963 207.164725 
L 337.564444 205.809876 
L 338.299259 207.164725 
L 339.768889 207.164725 
L 340.503704 205.809876 
L 339.768889 204.455027 
L 341.238519 204.455027 
L 341.973333 203.100179 
L 342.708148 204.455027 
L 344.177778 204.455027 
L 343.442963 205.809876 
L 344.177778 207.164725 
L 345.647407 207.164725 
L 346.382222 205.809876 
L 347.117037 207.164725 
L 348.586667 207.164725 
L 349.321481 205.809876 
L 348.586667 204.455027 
L 350.056296 204.455027 
L 350.791111 203.100179 
L 350.056296 201.74533 
L 348.586667 201.74533 
L 349.321481 200.390481 
L 348.586667 199.035633 
L 350.056296 199.035633 
L 350.791111 197.680784 
L 351.525926 199.035633 
L 352.995556 199.035633 
L 353.73037 197.680784 
L 352.995556 196.325936 
L 354.465185 196.325936 
L 355.2 194.971087 
L 355.934815 196.325936 
L 357.404444 196.325936 
L 356.66963 197.680784 
L 357.404444 199.035633 
L 358.874074 199.035633 
L 359.608889 197.680784 
L 360.343704 199.035633 
L 361.813333 199.035633 
L 361.078519 200.390481 
L 361.813333 201.74533 
L 360.343704 201.74533 
L 359.608889 203.100179 
L 360.343704 204.455027 
L 361.813333 204.455027 
L 361.078519 205.809876 
L 361.813333 207.164725 
L 363.282963 207.164725 
L 364.017778 205.809876 
L 364.752593 207.164725 
L 366.222222 207.164725 
L 366.957037 205.809876 
L 366.222222 204.455027 
L 367.691852 204.455027 
L 368.426667 203.100179 
L 369.161481 204.455027 
L 370.631111 204.455027 
L 369.896296 205.809876 
L 370.631111 207.164725 
L 372.100741 207.164725 
L 372.835556 205.809876 
L 373.57037 207.164725 
L 375.04 207.164725 
L 374.305185 208.519573 
L 375.04 209.874422 
L 373.57037 209.874422 
L 372.835556 211.229271 
L 373.57037 212.584119 
L 375.04 212.584119 
L 374.305185 213.938968 
L 375.04 215.293816 
L 373.57037 215.293816 
L 372.835556 216.648665 
L 372.100741 215.293816 
L 370.631111 215.293816 
L 369.896296 216.648665 
L 370.631111 218.003514 
L 369.161481 218.003514 
L 368.426667 219.358362 
L 369.161481 220.713211 
L 370.631111 220.713211 
L 369.896296 222.06806 
L 370.631111 223.422908 
L 372.100741 223.422908 
L 372.835556 222.06806 
L 373.57037 223.422908 
L 375.04 223.422908 
L 374.305185 224.777757 
L 375.04 226.132605 
L 373.57037 226.132605 
L 372.835556 227.487454 
L 373.57037 228.842303 
L 375.04 228.842303 
L 374.305185 230.197151 
L 375.04 231.552 
L 376.50963 231.552 
L 377.244444 230.197151 
L 377.979259 231.552 
L 379.448889 231.552 
L 380.183704 230.197151 
L 379.448889 228.842303 
L 380.918519 228.842303 
L 381.653333 227.487454 
L 382.388148 228.842303 
L 383.857778 228.842303 
L 383.122963 230.197151 
L 383.857778 231.552 
L 385.327407 231.552 
L 386.062222 230.197151 
L 386.797037 231.552 
L 388.266667 231.552 
L 389.001481 230.197151 
L 388.266667 228.842303 
L 389.736296 228.842303 
L 390.471111 227.487454 
L 389.736296 226.132605 
L 388.266667 226.132605 
L 389.001481 224.777757 
L 388.266667 223.422908 
L 389.736296 223.422908 
L 390.471111 222.06806 
L 391.205926 223.422908 
L 392.675556 223.422908 
L 393.41037 222.06806 
L 392.675556 220.713211 
L 394.145185 220.713211 
L 394.88 219.358362 
L 395.614815 220.713211 
L 397.084444 220.713211 
L 396.34963 222.06806 
L 397.084444 223.422908 
L 398.554074 223.422908 
L 399.288889 222.06806 
L 400.023704 223.422908 
L 401.493333 223.422908 
L 400.758519 224.777757 
L 401.493333 226.132605 
L 400.023704 226.132605 
L 399.288889 227.487454 
L 400.023704 228.842303 
L 401.493333 228.842303 
L 400.758519 230.197151 
L 401.493333 231.552 
L 402.962963 231.552 
L 403.697778 230.197151 
L 404.432593 231.552 
L 405.902222 231.552 
L 406.637037 230.197151 
L 405.902222 228.842303 
L 407.371852 228.842303 
L 408.106667 227.487454 
L 408.841481 228.842303 
L 410.311111 228.842303 
L 409.576296 230.197151 
L 410.311111 231.552 
L 411.780741 231.552 
L 412.515556 230.197151 
L 413.25037 231.552 
L 414.72 231.552 
L 414.72 231.552 
" style="fill:none;stroke:#1f77b4;stroke-linecap:square;stroke-width:1.5;"/>
   </g>
   <g id="patch_3">
    <path d="M 57.6 307.584 
L 57.6 41.472 
" style="fill:none;stroke:#000000;stroke-linecap:square;stroke-linejoin:miter;stroke-width:0.8;"/>
   </g>
   <g id="patch_4">
    <path d="M 414.72 307.584 
L 414.72 41.472 
" style="fill:none;stroke:#000000;stroke-linecap:square;stroke-linejoin:miter;stroke-width:0.8;"/>
   </g>
   <g id="patch_5">
    <path d="M 57.6 307.584 
L 414.72 307.584 
" style="fill:none;stroke:#000000;stroke-linecap:square;stroke-linejoin:miter;stroke-width:0.8;"/>
   </g>
   <g id="patch_6">
    <path d="M 57.6 41.472 
L 414.72 41.472 
" style="fill:none;stroke:#000000;stroke-linecap:square;stroke-linejoin:miter;stroke-width:0.8;"/>
   </g>
   <g id="text_17">
    <!-- Koch Curve. Iterations:5 -->
    <g transform="translate(163.915312 35.472)scale(0.12 -0.12)">
     <defs>
      <path d="M 9.8125 72.90625 
L 19.671875 72.90625 
L 19.671875 42.09375 
L 52.390625 72.90625 
L 65.09375 72.90625 
L 28.90625 38.921875 
L 67.671875 0 
L 54.6875 0 
L 19.671875 35.109375 
L 19.671875 0 
L 9.8125 0 
z
" id="DejaVuSans-75"/>
      <path d="M 30.609375 48.390625 
Q 23.390625 48.390625 19.1875 42.75 
Q 14.984375 37.109375 14.984375 27.296875 
Q 14.984375 17.484375 19.15625 11.84375 
Q 23.34375 6.203125 30.609375 6.203125 
Q 37.796875 6.203125 41.984375 11.859375 
Q 46.1875 17.53125 46.1875 27.296875 
Q 46.1875 37.015625 41.984375 42.703125 
Q 37.796875 48.390625 30.609375 48.390625 
z
M 30.609375 56 
Q 42.328125 56 49.015625 48.375 
Q 55.71875 40.765625 55.71875 27.296875 
Q 55.71875 13.875 49.015625 6.21875 
Q 42.328125 -1.421875 30.609375 -1.421875 
Q 18.84375 -1.421875 12.171875 6.21875 
Q 5.515625 13.875 5.515625 27.296875 
Q 5.515625 40.765625 12.171875 48.375 
Q 18.84375 56 30.609375 56 
z
" id="DejaVuSans-111"/>
      <path d="M 48.78125 52.59375 
L 48.78125 44.1875 
Q 44.96875 46.296875 41.140625 47.34375 
Q 37.3125 48.390625 33.40625 48.390625 
Q 24.65625 48.390625 19.8125 42.84375 
Q 14.984375 37.3125 14.984375 27.296875 
Q 14.984375 17.28125 19.8125 11.734375 
Q 24.65625 6.203125 33.40625 6.203125 
Q 37.3125 6.203125 41.140625 7.25 
Q 44.96875 8.296875 48.78125 10.40625 
L 48.78125 2.09375 
Q 45.015625 0.34375 40.984375 -0.53125 
Q 36.96875 -1.421875 32.421875 -1.421875 
Q 20.0625 -1.421875 12.78125 6.34375 
Q 5.515625 14.109375 5.515625 27.296875 
Q 5.515625 40.671875 12.859375 48.328125 
Q 20.21875 56 33.015625 56 
Q 37.15625 56 41.109375 55.140625 
Q 45.0625 54.296875 48.78125 52.59375 
z
" id="DejaVuSans-99"/>
      <path d="M 54.890625 33.015625 
L 54.890625 0 
L 45.90625 0 
L 45.90625 32.71875 
Q 45.90625 40.484375 42.875 44.328125 
Q 39.84375 48.1875 33.796875 48.1875 
Q 26.515625 48.1875 22.3125 43.546875 
Q 18.109375 38.921875 18.109375 30.90625 
L 18.109375 0 
L 9.078125 0 
L 9.078125 75.984375 
L 18.109375 75.984375 
L 18.109375 46.1875 
Q 21.34375 51.125 25.703125 53.5625 
Q 30.078125 56 35.796875 56 
Q 45.21875 56 50.046875 50.171875 
Q 54.890625 44.34375 54.890625 33.015625 
z
" id="DejaVuSans-104"/>
      <path id="DejaVuSans-32"/>
      <path d="M 64.40625 67.28125 
L 64.40625 56.890625 
Q 59.421875 61.53125 53.78125 63.8125 
Q 48.140625 66.109375 41.796875 66.109375 
Q 29.296875 66.109375 22.65625 58.46875 
Q 16.015625 50.828125 16.015625 36.375 
Q 16.015625 21.96875 22.65625 14.328125 
Q 29.296875 6.6875 41.796875 6.6875 
Q 48.140625 6.6875 53.78125 8.984375 
Q 59.421875 11.28125 64.40625 15.921875 
L 64.40625 5.609375 
Q 59.234375 2.09375 53.4375 0.328125 
Q 47.65625 -1.421875 41.21875 -1.421875 
Q 24.65625 -1.421875 15.125 8.703125 
Q 5.609375 18.84375 5.609375 36.375 
Q 5.609375 53.953125 15.125 64.078125 
Q 24.65625 74.21875 41.21875 74.21875 
Q 47.75 74.21875 53.53125 72.484375 
Q 59.328125 70.75 64.40625 67.28125 
z
" id="DejaVuSans-67"/>
      <path d="M 8.5 21.578125 
L 8.5 54.6875 
L 17.484375 54.6875 
L 17.484375 21.921875 
Q 17.484375 14.15625 20.5 10.265625 
Q 23.53125 6.390625 29.59375 6.390625 
Q 36.859375 6.390625 41.078125 11.03125 
Q 45.3125 15.671875 45.3125 23.6875 
L 45.3125 54.6875 
L 54.296875 54.6875 
L 54.296875 0 
L 45.3125 0 
L 45.3125 8.40625 
Q 42.046875 3.421875 37.71875 1 
Q 33.40625 -1.421875 27.6875 -1.421875 
Q 18.265625 -1.421875 13.375 4.4375 
Q 8.5 10.296875 8.5 21.578125 
z
M 31.109375 56 
z
" id="DejaVuSans-117"/>
      <path d="M 41.109375 46.296875 
Q 39.59375 47.171875 37.8125 47.578125 
Q 36.03125 48 33.890625 48 
Q 26.265625 48 22.1875 43.046875 
Q 18.109375 38.09375 18.109375 28.8125 
L 18.109375 0 
L 9.078125 0 
L 9.078125 54.6875 
L 18.109375 54.6875 
L 18.109375 46.1875 
Q 20.953125 51.171875 25.484375 53.578125 
Q 30.03125 56 36.53125 56 
Q 37.453125 56 38.578125 55.875 
Q 39.703125 55.765625 41.0625 55.515625 
z
" id="DejaVuSans-114"/>
      <path d="M 2.984375 54.6875 
L 12.5 54.6875 
L 29.59375 8.796875 
L 46.6875 54.6875 
L 56.203125 54.6875 
L 35.6875 0 
L 23.484375 0 
z
" id="DejaVuSans-118"/>
      <path d="M 56.203125 29.59375 
L 56.203125 25.203125 
L 14.890625 25.203125 
Q 15.484375 15.921875 20.484375 11.0625 
Q 25.484375 6.203125 34.421875 6.203125 
Q 39.59375 6.203125 44.453125 7.46875 
Q 49.3125 8.734375 54.109375 11.28125 
L 54.109375 2.78125 
Q 49.265625 0.734375 44.1875 -0.34375 
Q 39.109375 -1.421875 33.890625 -1.421875 
Q 20.796875 -1.421875 13.15625 6.1875 
Q 5.515625 13.8125 5.515625 26.8125 
Q 5.515625 40.234375 12.765625 48.109375 
Q 20.015625 56 32.328125 56 
Q 43.359375 56 49.78125 48.890625 
Q 56.203125 41.796875 56.203125 29.59375 
z
M 47.21875 32.234375 
Q 47.125 39.59375 43.09375 43.984375 
Q 39.0625 48.390625 32.421875 48.390625 
Q 24.90625 48.390625 20.390625 44.140625 
Q 15.875 39.890625 15.1875 32.171875 
z
" id="DejaVuSans-101"/>
      <path d="M 9.8125 72.90625 
L 19.671875 72.90625 
L 19.671875 0 
L 9.8125 0 
z
" id="DejaVuSans-73"/>
      <path d="M 18.3125 70.21875 
L 18.3125 54.6875 
L 36.8125 54.6875 
L 36.8125 47.703125 
L 18.3125 47.703125 
L 18.3125 18.015625 
Q 18.3125 11.328125 20.140625 9.421875 
Q 21.96875 7.515625 27.59375 7.515625 
L 36.8125 7.515625 
L 36.8125 0 
L 27.59375 0 
Q 17.1875 0 13.234375 3.875 
Q 9.28125 7.765625 9.28125 18.015625 
L 9.28125 47.703125 
L 2.6875 47.703125 
L 2.6875 54.6875 
L 9.28125 54.6875 
L 9.28125 70.21875 
z
" id="DejaVuSans-116"/>
      <path d="M 34.28125 27.484375 
Q 23.390625 27.484375 19.1875 25 
Q 14.984375 22.515625 14.984375 16.5 
Q 14.984375 11.71875 18.140625 8.90625 
Q 21.296875 6.109375 26.703125 6.109375 
Q 34.1875 6.109375 38.703125 11.40625 
Q 43.21875 16.703125 43.21875 25.484375 
L 43.21875 27.484375 
z
M 52.203125 31.203125 
L 52.203125 0 
L 43.21875 0 
L 43.21875 8.296875 
Q 40.140625 3.328125 35.546875 0.953125 
Q 30.953125 -1.421875 24.3125 -1.421875 
Q 15.921875 -1.421875 10.953125 3.296875 
Q 6 8.015625 6 15.921875 
Q 6 25.140625 12.171875 29.828125 
Q 18.359375 34.515625 30.609375 34.515625 
L 43.21875 34.515625 
L 43.21875 35.40625 
Q 43.21875 41.609375 39.140625 45 
Q 35.0625 48.390625 27.6875 48.390625 
Q 23 48.390625 18.546875 47.265625 
Q 14.109375 46.140625 10.015625 43.890625 
L 10.015625 52.203125 
Q 14.9375 54.109375 19.578125 55.046875 
Q 24.21875 56 28.609375 56 
Q 40.484375 56 46.34375 49.84375 
Q 52.203125 43.703125 52.203125 31.203125 
z
" id="DejaVuSans-97"/>
      <path d="M 54.890625 33.015625 
L 54.890625 0 
L 45.90625 0 
L 45.90625 32.71875 
Q 45.90625 40.484375 42.875 44.328125 
Q 39.84375 48.1875 33.796875 48.1875 
Q 26.515625 48.1875 22.3125 43.546875 
Q 18.109375 38.921875 18.109375 30.90625 
L 18.109375 0 
L 9.078125 0 
L 9.078125 54.6875 
L 18.109375 54.6875 
L 18.109375 46.1875 
Q 21.34375 51.125 25.703125 53.5625 
Q 30.078125 56 35.796875 56 
Q 45.21875 56 50.046875 50.171875 
Q 54.890625 44.34375 54.890625 33.015625 
z
" id="DejaVuSans-110"/>
      <path d="M 11.71875 12.40625 
L 22.015625 12.40625 
L 22.015625 0 
L 11.71875 0 
z
M 11.71875 51.703125 
L 22.015625 51.703125 
L 22.015625 39.3125 
L 11.71875 39.3125 
z
" id="DejaVuSans-58"/>
     </defs>
     <use xlink:href="#DejaVuSans-75"/>
     <use x="60.576172" xlink:href="#DejaVuSans-111"/>
     <use x="121.757812" xlink:href="#DejaVuSans-99"/>
     <use x="176.738281" xlink:href="#DejaVuSans-104"/>
     <use x="240.117188" xlink:href="#DejaVuSans-32"/>
     <use x="271.904297" xlink:href="#DejaVuSans-67"/>
     <use x="341.728516" xlink:href="#DejaVuSans-117"/>
     <use x="405.107422" xlink:href="#DejaVuSans-114"/>
     <use x="446.220703" xlink:href="#DejaVuSans-118"/>
     <use x="505.400391" xlink:href="#DejaVuSans-101"/>
     <use x="566.923828" xlink:href="#DejaVuSans-46"/>
     <use x="598.710938" xlink:href="#DejaVuSans-32"/>
     <use x="630.498047" xlink:href="#DejaVuSans-73"/>
     <use x="659.990234" xlink:href="#DejaVuSans-116"/>
     <use x="699.199219" xlink:href="#DejaVuSans-101"/>
     <use x="760.722656" xlink:href="#DejaVuSans-114"/>
     <use x="801.835938" xlink:href="#DejaVuSans-97"/>
     <use x="863.115234" xlink:href="#DejaVuSans-116"/>
     <use x="902.324219" xlink:href="#DejaVuSans-105"/>
     <use x="930.107422" xlink:href="#DejaVuSans-111"/>
     <use x="991.289062" xlink:href="#DejaVuSans-110"/>
     <use x="1054.667969" xlink:href="#DejaVuSans-115"/>
     <use x="1106.767578" xlink:href="#DejaVuSans-58"/>
     <use x="1140.458984" xlink:href="#DejaVuSans-53"/>
    </g>
   </g>
  </g>
 </g>
 <defs>
  <clipPath id="p709ce28d9b">
   <rect height="266.112" width="357.12" x="57.6" y="41.472"/>
  </clipPath>
 </defs>
</svg>
